<?xml version="1.0" standalone="no"?>
<!DOCTYPE svg PUBLIC "-//W3C//DTD SVG 20010904//EN"
 "http://www.w3.org/TR/2001/REC-SVG-20010904/DTD/svg10.dtd">
<svg version="1.0" xmlns="http://www.w3.org/2000/svg"
 width="200.000000pt" height="40.000000pt" viewBox="0 0 200.000000 40.000000"
 preserveAspectRatio="xMidYMid meet">

<g transform="translate(0.000000,40.000000) scale(0.100000,-0.100000)"
fill="#000000" stroke="none">
<path d="M418 228 c-3 -81 -4 -83 -28 -83 -17 0 -26 6 -28 20 -6 33 -22 42
-22 13 0 -45 10 -58 44 -58 48 0 56 14 56 107 0 108 -18 108 -22 1z"/>
<path d="M660 295 c0 -8 5 -15 10 -15 6 0 10 7 10 15 0 8 -4 15 -10 15 -5 0
-10 -7 -10 -15z"/>
<path d="M890 295 c0 -8 5 -15 10 -15 6 0 10 7 10 15 0 8 -4 15 -10 15 -5 0
-10 -7 -10 -15z"/>
<path d="M1741 223 c-12 -49 -24 -96 -27 -105 -3 -10 -1 -18 3 -18 5 0 20 42
33 93 13 50 25 98 28 105 2 6 0 12 -6 12 -5 0 -19 -39 -31 -87z"/>
<path d="M103 247 c-24 -11 -43 -26 -43 -31 0 -6 23 -24 51 -39 30 -16 49 -23
47 -15 -3 7 -21 22 -42 34 l-37 21 41 18 c22 10 40 22 40 27 0 12 -10 9 -57
-15z"/>
<path d="M497 252 c-19 -21 -23 -83 -7 -113 14 -25 52 -24 75 1 16 18 16 20 2
20 -10 0 -17 -5 -17 -11 0 -18 -45 -5 -48 14 -3 14 4 17 33 17 43 0 55 21 34
59 -18 32 -50 38 -72 13z m51 -14 c19 -19 14 -28 -18 -28 -32 0 -37 9 -18 28
15 15 21 15 36 0z"/>
<path d="M738 264 c-8 -8 36 -137 48 -141 10 -3 59 135 51 143 -8 8 -23 -20
-37 -66 l-13 -45 -18 54 c-21 60 -23 64 -31 55z"/>
<path d="M1010 256 c-21 -26 -8 -59 28 -70 22 -6 32 -14 30 -25 -5 -23 -37
-26 -54 -4 -14 17 -14 17 -12 -7 2 -19 10 -26 31 -28 37 -4 59 15 55 47 -2 20
-11 28 -35 36 -35 10 -44 32 -18 41 8 4 22 1 30 -6 9 -7 19 -10 23 -6 9 10
-27 36 -49 36 -9 0 -22 -7 -29 -14z"/>
<path d="M1150 256 c-21 -26 -8 -59 28 -70 17 -5 32 -15 32 -23 0 -22 -29 -27
-50 -8 -16 15 -20 15 -20 4 0 -36 56 -53 80 -25 21 26 8 60 -27 71 -35 10 -44
32 -18 41 8 4 22 1 30 -6 9 -7 19 -10 23 -6 9 10 -27 36 -49 36 -9 0 -22 -7
-29 -14z"/>
<path d="M1290 255 c-18 -21 -18 -98 -1 -118 20 -25 58 -21 77 8 18 28 14 85
-7 111 -15 19 -53 18 -69 -1z m62 -30 c15 -34 0 -80 -27 -80 -27 0 -42 46 -27
80 15 32 39 32 54 0z"/>
<path d="M1420 197 c0 -45 4 -77 10 -77 6 0 10 24 10 54 0 35 5 58 15 66 24
20 35 2 35 -55 0 -30 5 -57 10 -60 6 -4 10 20 10 64 0 61 -2 70 -20 76 -12 4
-27 2 -34 -4 -9 -7 -16 -7 -24 1 -9 9 -12 -6 -12 -65z"/>
<path d="M1830 265 c0 -2 18 -14 40 -25 22 -11 40 -22 40 -25 0 -3 -18 -14
-40 -25 -22 -11 -40 -25 -40 -30 0 -5 25 2 55 17 30 15 55 31 55 35 0 9 -83
58 -98 58 -7 0 -12 -2 -12 -5z"/>
<path d="M660 200 c0 -53 -2 -60 -20 -60 -11 0 -20 -4 -20 -10 0 -5 23 -10 50
-10 28 0 50 5 50 10 0 6 -9 10 -20 10 -18 0 -20 7 -20 60 0 33 -4 60 -10 60
-6 0 -10 -27 -10 -60z"/>
<path d="M890 200 c0 -53 -2 -60 -20 -60 -11 0 -20 -4 -20 -10 0 -5 23 -10 50
-10 28 0 50 5 50 10 0 6 -9 10 -20 10 -18 0 -20 7 -20 60 0 33 -4 60 -10 60
-6 0 -10 -27 -10 -60z"/>
</g>
</svg>
